<?xml version="1.0" standalone="no"?>
<!DOCTYPE svg PUBLIC "-//W3C//DTD SVG 20010904//EN"
 "http://www.w3.org/TR/2001/REC-SVG-20010904/DTD/svg10.dtd">
<svg version="1.0" xmlns="http://www.w3.org/2000/svg"
 width="900.000000pt" height="512.000000pt" viewBox="0 0 900.000000 512.000000"
 preserveAspectRatio="xMidYMid meet">

<g transform="translate(0.000000,512.000000) scale(0.100000,-0.100000)"
fill="#000000" stroke="none">
<path d="M2403 4514 c-230 -50 -417 -249 -453 -481 -7 -46 -10 -543 -8 -1513
4 -1599 -1 -1478 69 -1611 67 -126 189 -230 337 -288 l67 -26 1635 -3 c1066
-2 1662 1 1712 7 255 34 512 210 620 426 22 43 555 1462 640 1705 26 72 31
101 32 190 1 99 -1 109 -32 175 -52 110 -134 182 -258 226 -51 18 -89 22 -275
26 l-217 6 -6 62 c-23 221 -177 413 -396 493 l-75 27 -847 3 -848 3 0 47 c-1
233 -214 474 -465 527 -98 21 -1138 20 -1232 -1z m4257 -1579 c7 -8 9 -24 5
-37 -29 -93 -622 -1672 -640 -1703 -55 -97 -189 -185 -306 -205 -73 -11 -3148
-13 -3214 -2 -34 6 -40 11 -43 34 -3 25 584 1622 628 1708 43 84 138 163 240
200 54 19 88 19 1686 20 1414 0 1633 -2 1644 -15z"/>
</g>
</svg>
